<?xml version="1.0" encoding="UTF-8"?>
<svg version="1.1" xmlns="http://www.w3.org/2000/svg" width="352" height="78">
<path d="M0 0 C9.9 0 19.8 0 30 0 C30 0.66 30 1.32 30 2 C30.804375 2.061875 31.60875 2.12375 32.4375 2.1875 C39.24139234 3.73926492 45.20830248 6.99647892 49 13 C49.495 14.485 49.495 14.485 50 16 C53.00847418 17.22520264 53.00847418 17.22520264 56 18 C56 18.99 56 19.98 56 21 C53.8614515 23.1385485 52.86724686 23.42655063 50 24 C50 25.98 50 27.96 50 30 C46.93109813 31.53445094 44.29905734 30.54984289 41 30 C41 28 41 28 43 26 C42.01 26 41.02 26 40 26 C40 25.01 40 24.02 40 23 C39.34 23 38.68 23 38 23 C36.62689293 21.70766393 35.28965176 20.37562854 34 19 C34.495 19.61875 34.99 20.2375 35.5 20.875 C37 23 37 23 37 25 C35.35 25.33 33.7 25.66 32 26 C32 25.34 32 24.68 32 24 C28.94736336 23.01879536 27.05263664 23.01879536 24 24 C23.34 22.68 22.68 21.36 22 20 C21.505 21.485 21.505 21.485 21 23 C17.32477659 24.22507447 16.16407566 24.07756304 12.5625 22.375 C9.04405729 20.57404731 9.04405729 20.57404731 5.625 22.1875 C2.93108927 23.7362225 2.93108927 23.7362225 2 26 C1.34 26 0.68 26 0 26 C-0.20140476 29.62528568 0.14223235 31.86501708 2 35 C1.34 35 0.68 35 0 35 C0 35.99 0 36.98 0 38 C0.66 38.33 1.32 38.66 2 39 C1.67 40.65 1.34 42.3 1 44 C0.67 43.34 0.34 42.68 0 42 C0.33 41.34 0.66 40.68 1 40 C0.01 40 -0.98 40 -2 40 C-2.61914875 43.44954305 -2.3542827 45.45392516 -0.44140625 48.40234375 C1.32308545 50.64967423 3.12335402 52.84568701 5 55 C6.98 54.505 6.98 54.505 9 54 C9.33 55.65 9.66 57.3 10 59 C12.475 58.505 12.475 58.505 15 58 C15.185625 57.0409375 15.185625 57.0409375 15.375 56.0625 C15.58125 55.381875 15.7875 54.70125 16 54 C16.66 53.67 17.32 53.34 18 53 C18.495 55.97 18.495 55.97 19 59 C20.65 57.68 22.3 56.36 24 55 C24.66 55.66 25.32 56.32 26 57 C26.66 56.34 27.32 55.68 28 55 C27.34 53.68 26.68 52.36 26 51 C23.03 51.495 23.03 51.495 20 52 C20.33 50.68 20.66 49.36 21 48 C19.948125 47.7525 18.89625 47.505 17.8125 47.25 C14.1866459 46.23299214 11.80089228 44.54626571 9 42 C9.1875 40.125 9.1875 40.125 10 38 C12.5625 36.75 12.5625 36.75 15 36 C15 35.34 15 34.68 15 34 C16.8125 33.3125 16.8125 33.3125 19 33 C20.75 34.25 20.75 34.25 22 36 C22 36.99 22 37.98 22 39 C22.70125 38.649375 23.4025 38.29875 24.125 37.9375 C27.50268586 36.8360807 29.58080593 37.20483859 33 38 C34.1490712 36.0745356 34.1490712 36.0745356 34 34 C34.31802943 32.33034549 34.64984951 30.66321482 35 29 C35.66 29 36.32 29 37 29 C37.0825 30.2375 37.165 31.475 37.25 32.75 C37.63263183 35.75259699 37.9351878 36.90972587 39.75 39.4375 C42.21739457 41.15096845 44.0348673 41.67054081 47 42 C47.08121094 42.61359375 47.16242188 43.2271875 47.24609375 43.859375 C47.81193356 46.13830628 47.81193356 46.13830628 49.84765625 47.265625 C50.57855469 47.59046875 51.30945313 47.9153125 52.0625 48.25 C52.79597656 48.58515625 53.52945313 48.9203125 54.28515625 49.265625 C54.85105469 49.50796875 55.41695313 49.7503125 56 50 C55.0409375 50.433125 55.0409375 50.433125 54.0625 50.875 C51.84793921 51.82823451 51.84793921 51.82823451 51 54 C52.98 54.495 52.98 54.495 55 55 C55 55.66 55 56.32 55 57 C53.02 56.67 51.04 56.34 49 56 C48.14929079 58.55212763 47.94389397 59.80107862 48.6875 62.4375 C49 65 49 65 47.625 67.5 C43.42690051 71.49818999 38.49063619 74.16978794 33 76 C33 76.66 33 77.32 33 78 C28.4583875 78.05823729 23.9168716 78.09367675 19.375 78.125 C17.44720703 78.15013672 17.44720703 78.15013672 15.48046875 78.17578125 C14.23652344 78.18222656 12.99257813 78.18867187 11.7109375 78.1953125 C10.56931152 78.20578613 9.42768555 78.21625977 8.25146484 78.22705078 C3.12443883 77.86902899 -0.52591492 76.80495033 -4 73 C-5.485 72.505 -5.485 72.505 -7 72 C-7.33 71.34 -7.66 70.68 -8 70 C-8.598125 70.165 -9.19625 70.33 -9.8125 70.5 C-12 71 -12 71 -15 71 C-15 70.01 -15 69.02 -15 68 C-14.34 68 -13.68 68 -13 68 C-13.495 65.525 -13.495 65.525 -14 63 C-14.99 62.67 -15.98 62.34 -17 62 C-17.495 60.515 -17.495 60.515 -18 59 C-19.32 59 -20.64 59 -22 59 C-21.814375 57.906875 -21.62875 56.81375 -21.4375 55.6875 C-20.7421932 52.06375867 -20.7421932 52.06375867 -22 49 C-22.22664228 45.92071224 -22.18515798 42.83678776 -22.1875 39.75 C-22.19974609 38.91597656 -22.21199219 38.08195312 -22.22460938 37.22265625 C-22.23670765 32.08492317 -21.66346536 27.8654718 -20 23 C-20.66 22.67 -21.32 22.34 -22 22 C-21.67 21.34 -21.34 20.68 -21 20 C-20.01 20.33 -19.02 20.66 -18 21 C-18.33 20.01 -18.66 19.02 -19 18 C-19.99 18 -20.98 18 -22 18 C-21.67 14.7 -21.34 11.4 -21 8 C-20.01 8.33 -19.02 8.66 -18 9 C-17.67 9.99 -17.34 10.98 -17 12 C-16.34 10.35 -15.68 8.7 -15 7 C-14.01 7.33 -13.02 7.66 -12 8 C-12 8.99 -12 9.98 -12 11 C-11.29875 10.236875 -10.5975 9.47375 -9.875 8.6875 C-7.02918911 6.02728548 -4.44711779 4.72355889 -1 3 C-0.67 2.01 -0.34 1.02 0 0 Z M11 5 C11 5.66 11 6.32 11 7 C14.96 7 18.92 7 23 7 C23.33 6.34 23.66 5.68 24 5 C19.71 5 15.42 5 11 5 Z M27 6 C27.33 6.99 27.66 7.98 28 9 C28.99 9.33 29.98 9.66 31 10 C31 9.01 31 8.02 31 7 C29.68 6.67 28.36 6.34 27 6 Z M6 6 C5.34 6.66 4.68 7.32 4 8 C4.99 8.495 4.99 8.495 6 9 C6.99 8.34 7.98 7.68 9 7 C8.01 6.67 7.02 6.34 6 6 Z M32 8 C32.33 8.99 32.66 9.98 33 11 C33.66 11 34.32 11 35 11 C35 10.34 35 9.68 35 9 C34.01 8.67 33.02 8.34 32 8 Z M0 9 C-0.66 9.66 -1.32 10.32 -2 11 C-1.01 11.495 -1.01 11.495 0 12 C0.66 11.67 1.32 11.34 2 11 C2 10.34 2 9.68 2 9 C1.34 9 0.68 9 0 9 Z M-3 11 C-2 13 -2 13 -2 13 Z M-5 12 C-5.33 12.66 -5.66 13.32 -6 14 C-5.01 13.67 -4.02 13.34 -3 13 C-3.66 12.67 -4.32 12.34 -5 12 Z M11 12 C11 12.66 11 13.32 11 14 C11.66 13.67 12.32 13.34 13 13 C12.34 12.67 11.68 12.34 11 12 Z M13 12 C15.67642489 14.18490007 15.67642489 14.18490007 18 14 C18 13.34 18 12.68 18 12 C16.35 12 14.7 12 13 12 Z M19 12 C19 12.66 19 13.32 19 14 C20.65 13.67 22.3 13.34 24 13 C24 12.67 24 12.34 24 12 C22.35 12 20.7 12 19 12 Z M37 12 C37.33 12.99 37.66 13.98 38 15 C40.01508358 15.73323796 40.01508358 15.73323796 42 16 C41.67 15.34 41.34 14.68 41 14 C40.34 14 39.68 14 39 14 C39 13.34 39 12.68 39 12 C38.34 12 37.68 12 37 12 Z M-15 13 C-15 16 -15 16 -15 16 Z M25 13 C24.67 13.66 24.34 14.32 24 15 C26.64 15.99 29.28 16.98 32 18 C31.67 17.01 31.34 16.02 31 15 C27.99152582 13.77479736 27.99152582 13.77479736 25 13 Z M5 14 C5 14.99 5 15.98 5 17 C5.66 16.01 6.32 15.02 7 14 C6.34 14 5.68 14 5 14 Z M-8 15 C-7 18 -7 18 -7 18 Z M42 16 C42 16.99 42 17.98 42 19 C42.66 18.34 43.32 17.68 44 17 C43.34 16.67 42.68 16.34 42 16 Z M0 17 C-0.268125 17.639375 -0.53625 18.27875 -0.8125 18.9375 C-2 21 -2 21 -5 22 C-4.34 22.66 -3.68 23.32 -3 24 C-1.35 22.02 0.3 20.04 2 18 C1.34 17.67 0.68 17.34 0 17 Z M44 18 C44.33 19.32 44.66 20.64 45 22 C45.33 21.34 45.66 20.68 46 20 C45.34 19.34 44.68 18.68 44 18 Z M10 19 C14 20 14 20 14 20 Z M45 23 C46 25 46 25 46 25 Z M-6 24 C-6.33 24.99 -6.66 25.98 -7 27 C-6.01 26.67 -5.02 26.34 -4 26 C-4 25.34 -4 24.68 -4 24 C-4.66 24 -5.32 24 -6 24 Z M-15 26 C-14.34 26.66 -13.68 27.32 -13 28 C-13 27.34 -13 26.68 -13 26 C-13.66 26 -14.32 26 -15 26 Z M-15 28 C-16.42258812 31.82320557 -17.24042276 34.91281305 -17 39 C-14.60236815 36.60236815 -14.65719414 35.66726502 -14.375 32.375 C-14.30023438 31.55773437 -14.22546875 30.74046875 -14.1484375 29.8984375 C-14.09945313 29.27195312 -14.05046875 28.64546875 -14 28 C-14.33 28 -14.66 28 -15 28 Z M-7 28 C-6 30 -6 30 -6 30 Z M-8 30 C-8.33 30.66 -8.66 31.32 -9 32 C-8.34 32 -7.68 32 -7 32 C-7.33 31.34 -7.66 30.68 -8 30 Z M-10 33 C-9.67 34.32 -9.34 35.64 -9 37 C-8.67 35.68 -8.34 34.36 -8 33 C-8.66 33 -9.32 33 -10 33 Z M-3 33 C-2 37 -2 37 -2 37 Z M-4 37 C-3 41 -3 41 -3 41 Z M-10 38 C-10 39.65 -10 41.3 -10 43 C-9.34 41.68 -8.68 40.36 -8 39 C-8.66 38.67 -9.32 38.34 -10 38 Z M-17 40 C-17 41.98 -17 43.96 -17 46 C-16.01 46.495 -16.01 46.495 -15 47 C-15 44.69 -15 42.38 -15 40 C-15.66 40 -16.32 40 -17 40 Z M23 40 C23 40.99 23 41.98 23 43 C23.99 43.33 24.98 43.66 26 44 C26 43.34 26 42.68 26 42 C25.34 42 24.68 42 24 42 C23.67 41.34 23.34 40.68 23 40 Z M31 40 C31.99 40.495 31.99 40.495 33 41 C33 41.66 33 42.32 33 43 C35.475 43.99 35.475 43.99 38 45 C37.34 44.01 36.68 43.02 36 42 C35.34 42 34.68 42 34 42 C34 41.34 34 40.68 34 40 C33.01 40 32.02 40 31 40 Z M26 44 C26.66 44.66 27.32 45.32 28 46 C28 45.34 28 44.68 28 44 C27.34 44 26.68 44 26 44 Z M-9 46 C-8.67 47.65 -8.34 49.3 -8 51 C-7.34 50.67 -6.68 50.34 -6 50 C-6.33 48.68 -6.66 47.36 -7 46 C-7.66 46 -8.32 46 -9 46 Z M39 46 C40 48 40 48 40 48 Z M30 47 C33.73021313 51.95562913 33.73021313 51.95562913 39 55 C37.65396518 50.96189555 35.34663277 49.52704924 32 47 C31.34 47 30.68 47 30 47 Z M40 48 C41.65 49.65 43.3 51.3 45 53 C45.66 52.34 46.32 51.68 47 51 C43.94419026 48.41222792 43.94419026 48.41222792 40 48 Z M-15 49 C-15 49.66 -15 50.32 -15 51 C-14.34 50.67 -13.68 50.34 -13 50 C-13.66 49.67 -14.32 49.34 -15 49 Z M-13 53 C-13.33 53.66 -13.66 54.32 -14 55 C-13.67 55.66 -13.34 56.32 -13 57 C-12.34 57 -11.68 57 -11 57 C-10.67 57.66 -10.34 58.32 -10 59 C-10.34444881 56.52733235 -10.34444881 56.52733235 -11 54 C-11.66 53.67 -12.32 53.34 -13 53 Z M-6 53 C-5.34 53.66 -4.68 54.32 -4 55 C-4 54.34 -4 53.68 -4 53 C-4.66 53 -5.32 53 -6 53 Z M-20 54 C-19 56 -19 56 -19 56 Z M-4 55 C-3.34 56.32 -2.68 57.64 -2 59 C-1.01 59 -0.02 59 1 59 C-0.65 57.68 -2.3 56.36 -4 55 Z M33 58 C31.515 59.98 31.515 59.98 30 62 C31.32 61.67 32.64 61.34 34 61 C33.67 60.01 33.34 59.02 33 58 Z M44 58 C45 60 45 60 45 60 Z M-10 59 C-9.67 59.99 -9.34 60.98 -9 62 C-8.34 62 -7.68 62 -7 62 C-7.33 61.01 -7.66 60.02 -8 59 C-8.66 59 -9.32 59 -10 59 Z M1 60 C1.99 60.99 2.98 61.98 4 63 C3.67 62.01 3.34 61.02 3 60 C2.34 60 1.68 60 1 60 Z M-7 62 C-6.67 62.66 -6.34 63.32 -6 64 C-5.67 63.34 -5.34 62.68 -5 62 C-5.66 62 -6.32 62 -7 62 Z M5 62 C5 62.66 5 63.32 5 64 C5.99 64.33 6.98 64.66 8 65 C8 64.01 8 63.02 8 62 C7.01 62 6.02 62 5 62 Z M27 62 C27.33 62.66 27.66 63.32 28 64 C28.33 63.34 28.66 62.68 29 62 C28.34 62 27.68 62 27 62 Z M9 63 C9 63.66 9 64.32 9 65 C9.99 64.67 10.98 64.34 12 64 C11.01 63.67 10.02 63.34 9 63 Z M14 64 C15.485 64.99 15.485 64.99 17 66 C17.66 65.34 18.32 64.68 19 64 C17.35 64 15.7 64 14 64 Z M20 64 C19.67 64.66 19.34 65.32 19 66 C20.32 65.67 21.64 65.34 23 65 C22.01 64.67 21.02 64.34 20 64 Z M38 64 C37.01 65.485 37.01 65.485 36 67 C36.99 66.67 37.98 66.34 39 66 C38.67 65.34 38.34 64.68 38 64 Z M-2 65 C-2 68 -2 68 -2 68 Z M-12 67 C-11.67 67.66 -11.34 68.32 -11 69 C-10.34 68.67 -9.68 68.34 -9 68 C-9.99 67.67 -10.98 67.34 -12 67 Z M0 67 C0.33 67.99 0.66 68.98 1 70 C1.99 70 2.98 70 4 70 C4 69.34 4 68.68 4 68 C2.68 67.67 1.36 67.34 0 67 Z M33 67 C34 69 34 69 34 69 Z M26 70 C26.33 70.66 26.66 71.32 27 72 C27.33 71.34 27.66 70.68 28 70 C27.34 70 26.68 70 26 70 Z M8 71 C9.98 71.99 9.98 71.99 12 73 C12.99 72.34 13.98 71.68 15 71 C12.69 71 10.38 71 8 71 Z M16 71 C15.67 71.66 15.34 72.32 15 73 C15.66 73 16.32 73 17 73 C16.67 72.34 16.34 71.68 16 71 Z M20 71 C21.98 71.99 21.98 71.99 24 73 C24 72.34 24 71.68 24 71 C22.68 71 21.36 71 20 71 Z " fill="#0A0202" transform="translate(22,0)"/>
<path d="M0 0 C2.86724686 0.57344937 3.8614515 0.8614515 6 3 C6.268125 3.99 6.53625 4.98 6.8125 6 C7.7054215 9.20970067 7.7054215 9.20970067 10.625 10.375 C11.40875 10.58125 12.1925 10.7875 13 11 C12.34 12.98 11.68 14.96 11 17 C6.38 17 1.76 17 -3 17 C-3.33 17.99 -3.66 18.98 -4 20 C-4.99 20 -5.98 20 -7 20 C-6.45388137 16.17716957 -4.76181385 14.58920048 -2 12 C-1.67 11.34 -1.34 10.68 -1 10 C-2.65 10.66 -4.3 11.32 -6 12 C-6 12.99 -6 13.98 -6 15 C-7.32 15 -8.64 15 -10 15 C-10.33 15.66 -10.66 16.32 -11 17 C-11 16.01 -11 15.02 -11 14 C-11.99 14.33 -12.98 14.66 -14 15 C-14.19658808 16.41543415 -14.38187546 17.83244031 -14.5625 19.25 C-14.66691406 20.03890625 -14.77132812 20.8278125 -14.87890625 21.640625 C-15.00027349 24.00532874 -14.69633257 25.7511037 -14 28 C-12.35 28 -10.7 28 -9 28 C-9 26.68 -9 25.36 -9 24 C-8.34 23.01 -7.68 22.02 -7 21 C-2.71 21.33 1.58 21.66 6 22 C6.33 20.68 6.66 19.36 7 18 C8.9375 18.375 8.9375 18.375 11 19 C12.38226016 21.76452033 12.09525387 24.0461363 12.0625 27.125 C12.05347656 28.22070312 12.04445312 29.31640625 12.03515625 30.4453125 C12.02355469 31.28835937 12.01195312 32.13140625 12 33 C11.34 33 10.68 33 10 33 C10 34.65 10 36.3 10 38 C2.93033702 42.2035834 -4.71195638 43.86139456 -12.8125 42.0625 C-17.08177035 40.62924495 -20.20201604 39.0823281 -22.9140625 35.4296875 C-27.13154197 25.99345646 -26.16121125 16.48363375 -23 7 C-22.63893903 5.33911955 -22.29537827 3.67381019 -22 2 C-21.01 2 -20.02 2 -19 2 C-18.01 3.485 -18.01 3.485 -17 5 C-16.67 3.68 -16.34 2.36 -16 1 C-15.01 1.33 -14.02 1.66 -13 2 C-12.01 2 -11.02 2 -10 2 C-8.26953591 2.15260786 -6.54037955 2.32048005 -4.8125 2.5 C-3.91144531 2.5928125 -3.01039062 2.685625 -2.08203125 2.78125 C-1.39496094 2.8534375 -0.70789063 2.925625 0 3 C0 2.01 0 1.02 0 0 Z M-11 12 C-10 14 -10 14 -10 14 Z M-1 12 C-1 12.66 -1 13.32 -1 14 C-0.34 13.67 0.32 13.34 1 13 C0.34 12.67 -0.32 12.34 -1 12 Z M10 13 C11 15 11 15 11 15 Z M-3 27 C-2.34 28.32 -1.68 29.64 -1 31 C-0.34 31 0.32 31 1 31 C1 29.68 1 28.36 1 27 C-0.32 27 -1.64 27 -3 27 Z M-14 30 C-13 33 -13 33 -13 33 Z M-12 32 C-11 34 -11 34 -11 34 Z M-10 32 C-9.67 33.32 -9.34 34.64 -9 36 C-6.36 36 -3.72 36 -1 36 C-3.72606304 32.71185401 -3.72606304 32.71185401 -7.75 31.75 C-8.86375 31.87375 -8.86375 31.87375 -10 32 Z " fill="#322727" transform="translate(122,16)"/>
<path d="M0 0 C0 1.98 0 3.96 0 6 C1.32 6 2.64 6 4 6 C4 4.68 4 3.36 4 2 C5.65 2 7.3 2 9 2 C9.495 3.485 9.495 3.485 10 5 C10.66 5 11.32 5 12 5 C11.7215625 5.99 11.7215625 5.99 11.4375 7 C10.86972692 10.89330114 11.40718293 14.11375479 12 18 C10.7625 18.144375 9.525 18.28875 8.25 18.4375 C5.43495501 18.78688502 2.7298503 19.20379366 0 20 C-0.66 19.01 -1.32 18.02 -2 17 C-2.66 16.67 -3.32 16.34 -4 16 C-4.66 16.33 -5.32 16.66 -6 17 C-6.65213292 19.02463255 -6.65213292 19.02463255 -7 21 C-9 19 -9 19 -9.125 16.375 C-9.08375 15.59125 -9.0425 14.8075 -9 14 C-11.16940921 14.79895413 -11.16940921 14.79895413 -11.6875 16.875 C-12.18988397 19.18183235 -12.18988397 19.18183235 -11 22 C-11.185625 23.093125 -11.37125 24.18625 -11.5625 25.3125 C-12.03267528 29.27540594 -11.70491647 31.41967542 -10 35 C-8.515 35.495 -8.515 35.495 -7 36 C-7 36.66 -7 37.32 -7 38 C-6.01 37.34 -5.02 36.68 -4 36 C-5.65 35.34 -7.3 34.68 -9 34 C-8.67 32.02 -8.34 30.04 -8 28 C-7.34 28 -6.68 28 -6 28 C-6 27.01 -6 26.02 -6 25 C-6.66 24.34 -7.32 23.68 -8 23 C-7.34 22.67 -6.68 22.34 -6 22 C-5.01 22.33 -4.02 22.66 -3 23 C-0.43365139 23.22718496 2.11678107 23.41608184 4.6875 23.5625 C5.38939453 23.60568359 6.09128906 23.64886719 6.81445312 23.69335938 C8.54275206 23.7991736 10.2713511 23.90006581 12 24 C12.05397335 26.4377963 12.09365616 28.87439685 12.125 31.3125 C12.14175781 32.00279297 12.15851563 32.69308594 12.17578125 33.40429688 C12.21217794 37.17135396 12.14378864 38.78431704 10 42 C7.8359375 42.51171875 7.8359375 42.51171875 5.375 42.6875 C4.55773437 42.75324219 3.74046875 42.81898437 2.8984375 42.88671875 C2.27195312 42.92410156 1.64546875 42.96148437 1 43 C1 43.66 1 44.32 1 45 C-4.97537148 44.60706174 -9.615347 43.63953578 -15 41 C-15.68964844 40.72414062 -16.37929688 40.44828125 -17.08984375 40.1640625 C-20.16656222 38.28908887 -20.47934315 35.71664019 -21.47265625 32.3984375 C-22.1872049 29.14856436 -22.21154655 26.31422926 -22 23 C-22.66 23 -23.32 23 -24 23 C-25.31626692 19.38026598 -26 16.90432869 -26 13 C-24.865625 12.71125 -23.73125 12.4225 -22.5625 12.125 C-21.386875 11.75375 -20.21125 11.3825 -19 11 C-18.67 10.34 -18.34 9.68 -18 9 C-17.34 9 -16.68 9 -16 9 C-15.34 7.35 -14.68 5.7 -14 4 C-13.67 4.66 -13.34 5.32 -13 6 C-11.35 6 -9.7 6 -8 6 C-8 5.34 -8 4.68 -8 4 C-6.02 4 -4.04 4 -2 4 C-2 3.34 -2 2.68 -2 2 C-2.66 1.67 -3.32 1.34 -4 1 C-2 0 -2 0 0 0 Z M6 6 C6 6.66 6 7.32 6 8 C6.66 7.67 7.32 7.34 8 7 C7.34 6.67 6.68 6.34 6 6 Z M0 12 C0.33 12.99 0.66 13.98 1 15 C1 14.01 1 13.02 1 12 C0.67 12 0.34 12 0 12 Z M-24 15 C-23 17 -23 17 -23 17 Z M-22 15 C-21 18 -21 18 -21 18 Z M3 15 C4 17 4 17 4 17 Z M-23 19 C-22 22 -22 22 -22 22 Z M-6 28 C-6 28.99 -6 29.98 -6 31 C-3.59253898 33.14951877 -0.99889584 34.80044167 2 36 C2.66 35.67 3.32 35.34 4 35 C4 33.02 4 31.04 4 29 C2.72125 29.020625 1.4425 29.04125 0.125 29.0625 C-3.75 29.125 -3.75 29.125 -6 28 Z " fill="#312827" transform="translate(340,14)"/>
<path d="M0 0 C1.98 0.99 1.98 0.99 4 2 C4 2.66 4 3.32 4 4 C5.7015625 3.83951172 5.7015625 3.83951172 7.4375 3.67578125 C22.29928462 2.43578969 22.29928462 2.43578969 29 6 C29 6.66 29 7.32 29 8 C29.99 8.66 30.98 9.32 32 10 C31.63495936 15.66442374 30.9445679 20.00703705 28 25 C27.34 25 26.68 25 26 25 C26.66 26.32 27.32 27.64 28 29 C28 28.01 28 27.02 28 26 C29.65 26.33 31.3 26.66 33 27 C32.83242187 27.59167969 32.66484375 28.18335937 32.4921875 28.79296875 C30.85701888 35.03306515 30.85701888 35.03306515 33 41 C30.0709637 41.83686751 28.2923726 42.07479299 25.3125 41.3125 C22.69720287 39.82814217 22.01940388 38.7801924 21 36 C20.01 38.475 20.01 38.475 19 41 C16.8614515 38.8614515 16.57344937 37.86724686 16 35 C16.99 34.34 17.98 33.68 19 33 C17.13433512 29.37206002 17.13433512 29.37206002 14 27 C14 27.66 14 28.32 14 29 C12.68 29.33 11.36 29.66 10 30 C9.67 33.63 9.34 37.26 9 41 C6.03 41 3.06 41 0 41 C0 27.47 0 13.94 0 0 Z M17 9 C16.01 10.485 16.01 10.485 15 12 C14.01 12 13.02 12 12 12 C11.34 11.34 10.68 10.68 10 10 C9.12132271 13.73437848 8.91087781 17.16774573 9 21 C11.91652174 21.16681109 11.91652174 21.16681109 15 21 C15.66 20.34 16.32 19.68 17 19 C16.6814823 16.89179203 16.6814823 16.89179203 16 15 C16.99 14.34 17.98 13.68 19 13 C19 14.32 19 15.64 19 17 C19.99 17 20.98 17 22 17 C21.67 15.02 21.34 13.04 21 11 C20.34 11 19.68 11 19 11 C18.34 10.34 17.68 9.68 17 9 Z " fill="#2F2927" transform="translate(151,16)"/>
<path d="M0 0 C1.06927734 0.51433594 1.06927734 0.51433594 2.16015625 1.0390625 C4.19637968 2.10256773 5.45435104 3.3138375 7 5 C8.84188612 7.05270463 8.84188612 7.05270463 11 8 C11.59355614 10.64860427 11.74209269 13.29197322 12 16 C10.35 16 8.7 16 7 16 C7 15.01 7 14.02 7 13 C6.34 13 5.68 13 5 13 C3.6434836 11.69026002 2.31442362 10.35197858 1 9 C-5.14879069 3.63951581 -9.96830821 2.60418466 -17.9921875 2.7421875 C-24.47183399 3.29758577 -31.29202389 5.87541218 -35.625 10.875 C-36.07875 11.57625 -36.5325 12.2775 -37 13 C-37.515625 13.763125 -38.03125 14.52625 -38.5625 15.3125 C-42.57432368 22.81286601 -42.93929616 30.0649259 -40.8125 38.125 C-38.61597986 44.83830802 -35.21747373 48.54584793 -29 52 C-28.67 52.66 -28.34 53.32 -28 54 C-26.02 53.505 -26.02 53.505 -24 53 C-24 53.66 -24 54.32 -24 55 C-21.77110504 55.05428973 -19.54182529 55.09292338 -17.3125 55.125 C-15.45044922 55.15980469 -15.45044922 55.15980469 -13.55078125 55.1953125 C-10.14277986 55.00785368 -8.05207188 54.42783885 -5 53 C-3.9275 52.690625 -2.855 52.38125 -1.75 52.0625 C-0.8425 51.711875 0.065 51.36125 1 51 C1.33 50.01 1.66 49.02 2 48 C3.32 48.99 4.64 49.98 6 51 C5.75 52.875 5.75 52.875 5 55 C3.0625 56.125 3.0625 56.125 1 57 C0.34 57.66 -0.32 58.32 -1 59 C-10.29349717 62.43586947 -19.53584283 63.38598544 -28.796875 59.50390625 C-39.11611974 54.7502142 -39.11611974 54.7502142 -41 50 C-41.66 49.67 -42.32 49.34 -43 49 C-43 48.01 -43 47.02 -43 46 C-43.66 45.67 -44.32 45.34 -45 45 C-45.66 44.67 -46.32 44.34 -47 44 C-47.5625 41.0625 -47.5625 41.0625 -47.765625 39.125 C-47.97020009 36.99059106 -47.97020009 36.99059106 -48.421875 34.875 C-49.39637664 29.10595032 -48.65759335 24.18209928 -47.3125 18.5625 C-47.15177002 17.86390869 -46.99104004 17.16531738 -46.82543945 16.44555664 C-45.73462484 12.2787362 -44.69245347 10.22898106 -41 8 C-40.649375 7.29875 -40.29875 6.5975 -39.9375 5.875 C-39 4 -39 4 -36 3 C-35.34 2.34 -34.68 1.68 -34 1 C-33.01 1 -32.02 1 -31 1 C-31 0.34 -31 -0.32 -31 -1 C-19.10754778 -4.08799378 -11.09046385 -5.81030037 0 0 Z " fill="#D81C22" transform="translate(55,10)"/>
<path d="M0 0 C0.33 1.65 0.66 3.3 1 5 C1.66 5 2.32 5 3 5 C3 4.01 3 3.02 3 2 C3.9590625 2.2475 3.9590625 2.2475 4.9375 2.5 C6.80826821 3.03926667 6.80826821 3.03926667 8 3 C9.32 3 10.64 3 12 3 C12 14.22 12 25.44 12 37 C17.94 37 23.88 37 30 37 C30 37.66 30 38.32 30 39 C30.99 39.33 31.98 39.66 33 40 C32.525625 40.45375 32.05125 40.9075 31.5625 41.375 C29.90972192 42.93258204 29.90972192 42.93258204 29 45 C28.34 45 27.68 45 27 45 C27 44.01 27 43.02 27 42 C25.91730835 42.05329468 25.91730835 42.05329468 24.81274414 42.10766602 C21.56289576 42.264642 18.31273147 42.41367651 15.0625 42.5625 C13.35803711 42.64661133 13.35803711 42.64661133 11.61914062 42.73242188 C10.53955078 42.78076172 9.45996094 42.82910156 8.34765625 42.87890625 C7.34742432 42.9260376 6.34719238 42.97316895 5.31665039 43.02172852 C3 43 3 43 2 42 C1.91148471 39.40640678 1.88474055 36.83960309 1.90234375 34.24609375 C1.9037587 33.47064713 1.90517365 32.6952005 1.90663147 31.89625549 C1.91224655 29.40996506 1.92480154 26.9237634 1.9375 24.4375 C1.94251306 22.75586067 1.9470763 21.07421994 1.95117188 19.39257812 C1.96222087 15.26168434 1.97949555 11.13085724 2 7 C1.401875 6.855625 0.80375 6.71125 0.1875 6.5625 C-1.56150404 6.1127561 -3.28677023 5.57107659 -5 5 C-4.625 3.0625 -4.625 3.0625 -4 1 C-2 0 -2 0 0 0 Z " fill="#2D2827" transform="translate(228,15)"/>
<path d="M0 0 C1.32 0.66 2.64 1.32 4 2 C3.01 2.495 3.01 2.495 2 3 C2.33 3.66 2.66 4.32 3 5 C3.99 5 4.98 5 6 5 C5.67 6.32 5.34 7.64 5 9 C4.01 9 3.02 9 2 9 C2.33 17.58 2.66 26.16 3 35 C7.62 35 12.24 35 17 35 C17.33 34.01 17.66 33.02 18 32 C18.99 31.67 19.98 31.34 21 31 C22.1577506 34.47325181 22.06866652 37.36067448 22 41 C21.25314941 41.01458252 20.50629883 41.02916504 19.73681641 41.04418945 C16.36567748 41.11847946 12.99554995 41.21520199 9.625 41.3125 C7.8615625 41.34633789 7.8615625 41.34633789 6.0625 41.38085938 C4.94101562 41.41630859 3.81953125 41.45175781 2.6640625 41.48828125 C1.62717285 41.51446533 0.5902832 41.54064941 -0.47802734 41.56762695 C-1.72640381 41.78165161 -1.72640381 41.78165161 -3 42 C-3.66 42.99 -4.32 43.98 -5 45 C-6.32 45 -7.64 45 -9 45 C-9 44.01 -9 43.02 -9 42 C-8.34 42 -7.68 42 -7 42 C-7 31.11 -7 20.22 -7 9 C-7.99 8.67 -8.98 8.34 -10 8 C-9.67 6.68 -9.34 5.36 -9 4 C-3.375 2.875 -3.375 2.875 0 4 C-0.33 3.01 -0.66 2.02 -1 1 C-0.67 0.67 -0.34 0.34 0 0 Z " fill="#302726" transform="translate(281,16)"/>
<path d="M0 0 C2.97 0.33 5.94 0.66 9 1 C10.00333682 8.1274075 9.9564381 14.88558172 9.5625 22.0625 C9.51029297 23.11888672 9.45808594 24.17527344 9.40429688 25.26367188 C9.2759218 27.84284382 9.14102952 30.42149436 9 33 C8.67 33 8.34 33 8 33 C8 36.63 8 40.26 8 44 C6.02 43.67 4.04 43.34 2 43 C3.65 44.65 5.3 46.3 7 48 C6.34 48.66 5.68 49.32 5 50 C2.5 49.625 2.5 49.625 0 49 C-0.66 49 -1.32 49 -2 49 C-2.04949211 42.82528854 -2.08576343 36.65069295 -2.10986328 30.47583008 C-2.11991169 28.37587472 -2.13355266 26.27593331 -2.15087891 24.17602539 C-2.17517801 21.1550756 -2.18649482 18.13431105 -2.1953125 15.11328125 C-2.20563507 14.17664139 -2.21595764 13.24000153 -2.22659302 12.27497864 C-2.22737055 7.74277719 -2.17300725 4.10916422 0 0 Z " fill="#2D2827" transform="translate(203,15)"/>
<path d="M0 0 C0.99 0.33 1.98 0.66 3 1 C3.99 1 4.98 1 6 1 C6.66 1 7.32 1 8 1 C8 1.66 8 2.32 8 3 C7.39671875 3.20753906 6.7934375 3.41507813 6.171875 3.62890625 C1.58046188 5.39882195 -2.18856901 6.96957713 -4.4140625 11.67578125 C-6.02663371 18.0723137 -6.16944534 25.18330738 -3.6328125 31.29296875 C-1.7999372 34.33168306 0.13484484 35.94296553 3 38 C3.66 38.66 4.32 39.32 5 40 C0.71393481 39.9142787 -2.22577514 39.35502326 -5.3125 36.375 C-9.51765157 30.97801403 -9.75807329 23.61266332 -10 17 C-9.4425237 13.15720222 -8.22616713 9.67850138 -7 6 C-6.63893903 4.33911955 -6.29537827 2.67381019 -6 1 C-5.01 1 -4.02 1 -3 1 C-2.34 1.99 -1.68 2.98 -1 4 C-0.67 2.68 -0.34 1.36 0 0 Z " fill="#D21C23" transform="translate(106,17)"/>
<path d="M0 0 C0.33 1.65 0.66 3.3 1 5 C1.66 5 2.32 5 3 5 C3 4.01 3 3.02 3 2 C4.32 2.33 5.64 2.66 7 3 C6.34 3 5.68 3 5 3 C5 15.87 5 28.74 5 42 C4.01 42 3.02 42 2 42 C2 30.45 2 18.9 2 7 C0.68 6.67 -0.64 6.34 -2 6 C-2.99 5.67 -3.98 5.34 -5 5 C-4.625 3.0625 -4.625 3.0625 -4 1 C-2 0 -2 0 0 0 Z " fill="#CC1E25" transform="translate(228,15)"/>
<path d="M0 0 C0.66 0.33 1.32 0.66 2 1 C1.97381592 2.13018555 1.94763184 3.26037109 1.9206543 4.42480469 C1.83009286 8.62154308 1.77272969 12.81819531 1.7253418 17.015625 C1.700211 18.83152799 1.66610039 20.64732996 1.62280273 22.46289062 C1.56208489 25.07447223 1.53377719 27.68471594 1.51171875 30.296875 C1.48591232 31.10743347 1.4601059 31.91799194 1.43351746 32.75311279 C1.37730714 35.34129274 1.37730714 35.34129274 2 39 C4.41257792 41.37407334 4.41257792 41.37407334 7 43 C7 43.99 7 44.98 7 46 C6.05125 45.835 5.1025 45.67 4.125 45.5 C1.19831099 44.9473365 1.19831099 44.9473365 -1 45 C-1.02527124 38.75204325 -1.04283344 32.50409959 -1.05493164 26.25610352 C-1.05997298 24.12881986 -1.06680591 22.00153969 -1.07543945 19.87426758 C-1.08751379 16.82372174 -1.09323014 13.77322155 -1.09765625 10.72265625 C-1.10281754 9.76537125 -1.10797882 8.80808624 -1.11329651 7.8217926 C-1.11337204 6.94095505 -1.11344757 6.06011749 -1.11352539 5.15258789 C-1.115746 4.37315323 -1.11796661 3.59371857 -1.12025452 2.79066467 C-1 1 -1 1 0 0 Z " fill="#C91F24" transform="translate(202,19)"/>
<path d="M0 0 C0.33 0.66 0.66 1.32 1 2 C3.02463255 2.65213292 3.02463255 2.65213292 5 3 C4.27683594 3.47179687 4.27683594 3.47179687 3.5390625 3.953125 C2.90742188 4.38109375 2.27578125 4.8090625 1.625 5.25 C0.99851562 5.66765625 0.37203125 6.0853125 -0.2734375 6.515625 C-3.49660252 9.28667185 -3.94929443 11.44459712 -4.3359375 15.6796875 C-4.35972703 17.07798326 -4.37243395 18.47650424 -4.375 19.875 C-4.39949219 20.56980469 -4.42398437 21.26460937 -4.44921875 21.98046875 C-4.47847557 27.15892568 -3.27105028 30.03722225 0 34 C1.60844935 35.46565478 1.60844935 35.46565478 3.25 36.375 C4.1575 36.91125 5.065 37.4475 6 38 C4.515 38.495 4.515 38.495 3 39 C0.5 37.625 0.5 37.625 -2 36 C-2.99 35.67 -3.98 35.34 -5 35 C-7.66422132 29.89083483 -8.36203841 24.67193509 -8 19 C-8.66 19 -9.32 19 -10 19 C-11.31626692 15.38026598 -12 12.90432869 -12 9 C-10.865625 8.71125 -9.73125 8.4225 -8.5625 8.125 C-7.386875 7.75375 -6.21125 7.3825 -5 7 C-4.67 6.34 -4.34 5.68 -4 5 C-3.34 5 -2.68 5 -2 5 C-1.34 3.35 -0.68 1.7 0 0 Z M-10 11 C-9 13 -9 13 -9 13 Z M-8 11 C-7 14 -7 14 -7 14 Z M-9 15 C-8 18 -8 18 -8 18 Z " fill="#DA1D24" transform="translate(326,18)"/>
<path d="M0 0 C0.99 0 1.98 0 3 0 C3 12.54 3 25.08 3 38 C2.01 38 1.02 38 0 38 C0 25.46 0 12.92 0 0 Z " fill="#DC1E24" transform="translate(151,19)"/>
<path d="M0 0 C2.4375 1.4375 2.4375 1.4375 3.4375 4.375 C3.4375 7.4375 3.4375 7.4375 2.0625 9.125 C1.258125 9.7746875 1.258125 9.7746875 0.4375 10.4375 C0.1075 11.4275 -0.2225 12.4175 -0.5625 13.4375 C-8.71634615 11.4375 -8.71634615 11.4375 -10.5625 8.4375 C-10.5625 6.375 -10.5625 6.375 -9.5625 4.4375 C-7 3.1875 -7 3.1875 -4.5625 2.4375 C-4.5625 1.7775 -4.5625 1.1175 -4.5625 0.4375 C-2.5625 -0.5625 -2.5625 -0.5625 0 0 Z " fill="#312726" transform="translate(41.5625,33.5625)"/>
<path d="M0 0 C1.65 0 3.3 0 5 0 C5 12.21 5 24.42 5 37 C4.34 37 3.68 37 3 37 C2.67 26.44 2.34 15.88 2 5 C1.01 4.67 0.02 4.34 -1 4 C-0.67 2.68 -0.34 1.36 0 0 Z " fill="#D71C23" transform="translate(272,20)"/>
<path d="M0 0 C4.75 0.75 4.75 0.75 7 3 C7.47383353 6.63272373 7.4591452 8.35379564 5.3125 11.375 C2.61209763 13.27258004 1.22939919 13.35882213 -2 13 C-2.33 10.36 -2.66 7.72 -3 5 C-1.68 4.67 -0.36 4.34 1 4 C1 5.32 1 6.64 1 8 C1.99 8 2.98 8 4 8 C2.88145414 4.27385847 2.88145414 4.27385847 0 2 C0 1.34 0 0.68 0 0 Z " fill="#B51C22" transform="translate(169,25)"/>
<path d="M0 0 C0.66 0 1.32 0 2 0 C2 1.65 2 3.3 2 5 C4.97 5 7.94 5 11 5 C11 7.97 11 10.94 11 14 C7.00889681 15.9955516 5.30013434 16.19546065 1 16 C1.598125 15.649375 2.19625 15.29875 2.8125 14.9375 C5.80464755 12.28731217 6.59537051 9.72226816 8 6 C6.9171875 6.309375 6.9171875 6.309375 5.8125 6.625 C2.55358415 7.05952211 0.91695496 6.41680669 -2 5 C-1.125 1.125 -1.125 1.125 0 0 Z " fill="#C41E23" transform="translate(115,37)"/>
<path d="M0 0 C0.33 0 0.66 0 1 0 C1.02578125 0.556875 1.0515625 1.11375 1.078125 1.6875 C1.60726208 8.80679887 3.22002287 14.48478259 8.625 19.375 C9.40875 19.91125 10.1925 20.4475 11 21 C11.66 21.66 12.32 22.32 13 23 C9.57189475 22.93143789 6.95225689 22.78160908 4.234375 20.55078125 C-0.84219828 14.87044076 -1.10835049 10.27815101 -1.1328125 2.890625 C-1 1 -1 1 0 0 Z " fill="#DC1C23" transform="translate(98,34)"/>
<path d="M0 0 C3.01729163 0.17681671 6.00231806 0.62001215 9 1 C10.00333682 8.1274075 9.9564381 14.88558172 9.5625 22.0625 C9.51029297 23.11888672 9.45808594 24.17527344 9.40429688 25.26367188 C9.2759218 27.84284382 9.14102952 30.42149436 9 33 C8.67 33 8.34 33 8 33 C8 23.43 8 13.86 8 4 C5.69 4.33 3.38 4.66 1 5 C0.34 3.68 -0.32 2.36 -1 1 C-0.67 0.67 -0.34 0.34 0 0 Z " fill="#4C1B1D" transform="translate(203,15)"/>
<path d="M0 0 C4.06124391 1.35374797 4.60315649 3.26258828 6.6875 6.9375 C7.31011719 8.01902344 7.93273437 9.10054687 8.57421875 10.21484375 C10 13 10 13 10 15 C7 14 7 14 5.8125 11.9375 C5.544375 11.298125 5.27625 10.65875 5 10 C4.34 11.65 3.68 13.3 3 15 C0.8614515 12.8614515 0.57344937 11.86724686 0 9 C0.99 8.34 1.98 7.68 3 7 C2.505 6.21625 2.01 5.4325 1.5 4.625 C0 2 0 2 0 0 Z " fill="#BA1B20" transform="translate(167,42)"/>
<path d="M0 0 C0.33 0 0.66 0 1 0 C1.09796875 0.65226562 1.1959375 1.30453125 1.296875 1.9765625 C2.34033413 8.07540121 3.46362819 13.22637505 8.59375 17.25 C10.02593526 18.22280508 11.50945188 19.11922157 13 20 C12.01 20.33 11.02 20.66 10 21 C7.5 19.625 7.5 19.625 5 18 C4.01 17.67 3.02 17.34 2 17 C-0.64309593 11.9313469 -1.46971849 6.63662193 -1 1 C-0.67 0.67 -0.34 0.34 0 0 Z " fill="#DC1D24" transform="translate(319,36)"/>
<path d="M0 0 C0.99 0.33 1.98 0.66 3 1 C2.34938905 2.67299959 1.67966676 4.33859237 1 6 C0.7525 6.7425 0.505 7.485 0.25 8.25 C-1 10 -1 10 -4.125 10.75 C-5.548125 10.87375 -5.548125 10.87375 -7 11 C-6.67 7.7 -6.34 4.4 -6 1 C-5.01 1.33 -4.02 1.66 -3 2 C-2.67 2.99 -2.34 3.98 -2 5 C-1.34 3.35 -0.68 1.7 0 0 Z " fill="#5A1617" transform="translate(7,7)"/>
<path d="M0 0 C0.66 0 1.32 0 2 0 C2.04940929 5.49925421 2.08572395 10.99837942 2.10986328 16.49780273 C2.11992567 18.36891938 2.13357691 20.24002028 2.15087891 22.11108398 C2.17511684 24.79935591 2.18648063 27.48742006 2.1953125 30.17578125 C2.20563507 31.01337479 2.21595764 31.85096832 2.22659302 32.71394348 C2.22774341 38.65838488 2.22774341 38.65838488 0 42 C-1.32 42 -2.64 42 -4 42 C-4 41.01 -4 40.02 -4 39 C-3.34 39 -2.68 39 -2 39 C-1.67 38.34 -1.34 37.68 -1 37 C-0.67 37.33 -0.34 37.66 0 38 C0 25.46 0 12.92 0 0 Z " fill="#7A2222" transform="translate(276,19)"/>
<path d="M0 0 C2.6875 -0.375 2.6875 -0.375 6 0 C8.16704095 1.81426684 9.38125003 3.61948534 11 6 C11 6.66 11 7.32 11 8 C8.64561267 9.42944945 7.51967567 10.08661261 4.75 9.625 C4.1725 9.41875 3.595 9.2125 3 9 C3 7.02 3 5.04 3 3 C2.01 2.67 1.02 2.34 0 2 C0 1.34 0 0.68 0 0 Z M4 2 C4.33 2.99 4.66 3.98 5 5 C5 4.01 5 3.02 5 2 C4.67 2 4.34 2 4 2 Z M7 5 C8 7 8 7 8 7 Z " fill="#7E191D" transform="translate(336,24)"/>
<path d="M0 0 C3.29185738 -0.36576193 4.58581832 -0.3221413 7.25 1.75 C8.95663677 3.94424728 9.61205523 5.28438663 10 8 C7.69 8.33 5.38 8.66 3 9 C2.67 9.99 2.34 10.98 2 12 C1.01 12 0.02 12 -1 12 C-0.45388137 8.17716957 1.23818615 6.58920048 4 4 C4.33 3.34 4.66 2.68 5 2 C3.35 1.67 1.7 1.34 0 1 C0 0.67 0 0.34 0 0 Z M5 4 C5 4.66 5 5.32 5 6 C5.66 5.67 6.32 5.34 7 5 C6.34 4.67 5.68 4.34 5 4 Z " fill="#CE1D23" transform="translate(116,24)"/>
<path d="M0 0 C0.78503906 0.00515625 1.57007812 0.0103125 2.37890625 0.015625 C3.55259766 0.00789063 3.55259766 0.00789063 4.75 0 C6.94140625 0.265625 6.94140625 0.265625 9.94140625 2.265625 C9.61140625 3.585625 9.28140625 4.905625 8.94140625 6.265625 C7.33623528 6.17828924 5.73218963 6.07010276 4.12890625 5.953125 C2.78892578 5.86611328 2.78892578 5.86611328 1.421875 5.77734375 C-1.36463375 5.20248919 -2.29995129 4.4449394 -4.05859375 2.265625 C-2.05859375 0.265625 -2.05859375 0.265625 0 0 Z " fill="#601619" transform="translate(112.05859375,43.734375)"/>
<path d="M0 0 C1.98 0.99 1.98 0.99 4 2 C4 14.87 4 27.74 4 41 C3.67 41 3.34 41 3 41 C3 28.46 3 15.92 3 3 C2.01 3 1.02 3 0 3 C0 2.01 0 1.02 0 0 Z " fill="#3A2828" transform="translate(151,16)"/>
<path d="M0 0 C0.99 0 1.98 0 3 0 C3 2.97 3 5.94 3 9 C-0.76687864 10.88343932 -2.02958963 11.22057835 -6 11 C-4.71034824 9.62437146 -3.37310707 8.29233607 -2 7 C-1.34 7 -0.68 7 0 7 C0 4.69 0 2.38 0 0 Z " fill="#C21F23" transform="translate(344,42)"/>
<path d="M0 0 C0.66 0 1.32 0 2 0 C2 0.99 2 1.98 2 3 C2.78375 3.2475 3.5675 3.495 4.375 3.75 C7.32317108 5.15389099 7.9024777 6.00675737 9 9 C7.02 9.99 7.02 9.99 5 11 C4.67 10.01 4.34 9.02 4 8 C1.49552484 6.78130071 1.49552484 6.78130071 -1 6 C-0.67 4.02 -0.34 2.04 0 0 Z " fill="#611719" transform="translate(332,42)"/>
<path d="M0 0 C1.32 1.32 2.64 2.64 4 4 C3.67 4.99 3.34 5.98 3 7 C2.34 6.67 1.68 6.34 1 6 C0.01 6.495 0.01 6.495 -1 7 C-1.65213292 9.02463255 -1.65213292 9.02463255 -2 11 C-4 9 -4 9 -4.375 6.0625 C-4 3 -4 3 -2 1.125 C-1.34 0.75375 -0.68 0.3825 0 0 Z " fill="#57181A" transform="translate(335,24)"/>
<path d="M0 0 C-0.33 0.66 -0.66 1.32 -1 2 C-2.32 2 -3.64 2 -5 2 C-5 2.66 -5 3.32 -5 4 C-11.0546875 4.1953125 -11.0546875 4.1953125 -13 4 C-13.66 3.34 -14.32 2.68 -15 2 C-9.68670645 -0.08989546 -5.71271928 -1.6112798 0 0 Z " fill="#5A1618" transform="translate(350,59)"/>
<path d="M0 0 C0.66 0.33 1.32 0.66 2 1 C2 2.32 2 3.64 2 5 C2.99 5.33 3.98 5.66 5 6 C4.67 7.32 4.34 8.64 4 10 C1.36 9.67 -1.28 9.34 -4 9 C-4 8.34 -4 7.68 -4 7 C-3.34 6.54625 -2.68 6.0925 -2 5.625 C-1.34 5.08875 -0.68 4.5525 0 4 C0 2.68 0 1.36 0 0 Z " fill="#5E1315" transform="translate(67,21)"/>
<path d="M0 0 C6.875 3.625 6.875 3.625 8 7 C5 7 2 7 -1 7 C-1.04254356 5.00045254 -1.04080783 2.99958364 -1 1 C-0.67 0.67 -0.34 0.34 0 0 Z " fill="#611618" transform="translate(202,57)"/>
<path d="M0 0 C0 1.32 0 2.64 0 4 C-2.1875 4.75 -2.1875 4.75 -5 5 C-7.8125 3.0625 -7.8125 3.0625 -10 1 C-6.52674819 -0.1577506 -3.63932552 -0.06866652 0 0 Z " fill="#491013" transform="translate(43,19)"/>
<path d="M0 0 C1.9375 0.375 1.9375 0.375 4 1 C5.38226016 3.76452033 5.09525387 6.0461363 5.0625 9.125 C5.05347656 10.22070312 5.04445312 11.31640625 5.03515625 12.4453125 C5.02355469 13.28835937 5.01195312 14.13140625 5 15 C4.34 15 3.68 15 3 15 C3 11.37 3 7.74 3 4 C1.68 4 0.36 4 -1 4 C-0.67 2.68 -0.34 1.36 0 0 Z " fill="#471D1E" transform="translate(129,34)"/>
<path d="M0 0 C4.75 0.75 4.75 0.75 7 3 C7.125 6.125 7.125 6.125 7 9 C6.01 9 5.02 9 4 9 C3.71125 8.030625 3.4225 7.06125 3.125 6.0625 C2.35785318 2.89335797 2.35785318 2.89335797 0 2 C0 1.34 0 0.68 0 0 Z " fill="#DA1B23" transform="translate(169,25)"/>
<path d="M0 0 C1.65 0 3.3 0 5 0 C5.33 0.99 5.66 1.98 6 3 C6.66 3 7.32 3 8 3 C8 4.32 8 5.64 8 7 C5.07120629 6.37240135 2.63904371 5.41377341 0 4 C0 2.68 0 1.36 0 0 Z " fill="#54181A" transform="translate(344,16)"/>
<path d="M0 0 C3 0 3 0 4.6875 1.3125 C6 3 6 3 6 6 C4.02 6.99 4.02 6.99 2 8 C0.74335022 5.09399739 0 3.20395416 0 0 Z " fill="#5C1518" transform="translate(49,27)"/>
<path d="M0 0 C-0.99 3.63 -1.98 7.26 -3 11 C-3.33 11 -3.66 11 -4 11 C-5.31626692 7.38026598 -6 4.90432869 -6 1 C-4 0 -4 0 0 0 Z M-4 3 C-3 5 -3 5 -3 5 Z " fill="#77171A" transform="translate(320,26)"/>
<path d="M0 0 C0.66 0 1.32 0 2 0 C2 1.65 2 3.3 2 5 C4.31 5 6.62 5 9 5 C9 5.33 9 5.66 9 6 C4.58937864 7.0257259 2.07369424 7.03684712 -2 5 C-1.125 1.125 -1.125 1.125 0 0 Z " fill="#942124" transform="translate(115,37)"/>
<path d="M0 0 C0.33 2.31 0.66 4.62 1 7 C-0.98 6.34 -2.96 5.68 -5 5 C-4.625 3.0625 -4.625 3.0625 -4 1 C-2 0 -2 0 0 0 Z " fill="#601618" transform="translate(228,15)"/>
<path d="M0 0 C2 2 2 2 2 5 C1.01 5 0.02 5 -1 5 C-1.33 5.99 -1.66 6.98 -2 8 C-2.99 8 -3.98 8 -5 8 C-4.45773019 4.20411134 -2.79872437 2.52788007 0 0 Z " fill="#641518" transform="translate(120,28)"/>
<path d="M0 0 C0.33 0.66 0.66 1.32 1 2 C1.66 2.33 2.32 2.66 3 3 C2.01 3.495 2.01 3.495 1 4 C1 4.99 1 5.98 1 7 C-0.32 7 -1.64 7 -3 7 C-3.33 7.66 -3.66 8.32 -4 9 C-4 6.69 -4 4.38 -4 2 C-2.68 2 -1.36 2 0 2 C0 1.34 0 0.68 0 0 Z " fill="#5C191A" transform="translate(115,24)"/>
<path d="M0 0 C0.99 0.33 1.98 0.66 3 1 C1.80100302 4.0831351 0.52299523 7.06279492 -1 10 C-1.66 10 -2.32 10 -3 10 C-2.69201674 8.51988629 -2.378482 7.04092675 -2.0625 5.5625 C-1.88847656 4.73878906 -1.71445313 3.91507813 -1.53515625 3.06640625 C-1 1 -1 1 0 0 Z " fill="#4C1214" transform="translate(7,7)"/>
<path d="M0 0 C-0.99 0 -1.98 0 -3 0 C-3.66 1.32 -4.32 2.64 -5 4 C-6.9375 3.6875 -6.9375 3.6875 -9 3 C-9.33 2.01 -9.66 1.02 -10 0 C-6.33694766 -0.74926071 -3.57644848 -1.2380014 0 0 Z " fill="#591C1D" transform="translate(171,25)"/>
<path d="M0 0 C2.475 0.495 2.475 0.495 5 1 C4.34 2.98 3.68 4.96 3 7 C2.34 7 1.68 7 1 7 C0.67 4.69 0.34 2.38 0 0 Z " fill="#551819" transform="translate(179,42)"/>
<path d="M0 0 C1.98 0.99 1.98 0.99 4 2 C4 6.62 4 11.24 4 16 C3.67 16 3.34 16 3 16 C3 11.71 3 7.42 3 3 C2.01 3 1.02 3 0 3 C0 2.01 0 1.02 0 0 Z " fill="#512022" transform="translate(151,16)"/>
<path d="M0 0 C0.33 0 0.66 0 1 0 C1.185625 1.2065625 1.185625 1.2065625 1.375 2.4375 C1.58125 3.283125 1.7875 4.12875 2 5 C2.66 5.33 3.32 5.66 4 6 C3.67 7.65 3.34 9.3 3 11 C2.67 10.34 2.34 9.68 2 9 C2.33 8.34 2.66 7.68 3 7 C2.01 7 1.02 7 0 7 C-0.33 7.66 -0.66 8.32 -1 9 C-0.67 6.03 -0.34 3.06 0 0 Z " fill="#471013" transform="translate(20,33)"/>
<path d="M0 0 C2.79828356 0.38597015 3.8205884 0.80136573 5.75 2.9375 C7 5 7 5 7 7 C6.01 7 5.02 7 4 7 C4 6.01 4 5.02 4 4 C3.34 4 2.68 4 2 4 C1.34 2.68 0.68 1.36 0 0 Z " fill="#D81E24" transform="translate(340,25)"/>
<path d="M0 0 C0.33 1.65 0.66 3.3 1 5 C-0.32 5.33 -1.64 5.66 -3 6 C-3.33 4.35 -3.66 2.7 -4 1 C-2 0 -2 0 0 0 Z " fill="#5E1518" transform="translate(170,29)"/>
<path d="M0 0 C0.99 0.33 1.98 0.66 3 1 C3.99 1 4.98 1 6 1 C6.66 1 7.32 1 8 1 C8 1.66 8 2.32 8 3 C5.69 3.66 3.38 4.32 1 5 C0.34 3.68 -0.32 2.36 -1 1 C-0.67 0.67 -0.34 0.34 0 0 Z " fill="#A9191F" transform="translate(106,17)"/>
<path d="M0 0 C2.0625 0.4375 2.0625 0.4375 4 1 C4 2.98 4 4.96 4 7 C3.01 7.495 3.01 7.495 2 8 C1.814375 6.824375 1.814375 6.824375 1.625 5.625 C1.20882007 2.85942178 1.20882007 2.85942178 -1 1 C-0.67 0.67 -0.34 0.34 0 0 Z " fill="#BE1B21" transform="translate(333,36)"/>
<path d="M0 0 C1.52519276 0.08937803 3.04681929 0.24537146 4.5625 0.4375 C5.80193359 0.59025391 5.80193359 0.59025391 7.06640625 0.74609375 C7.70449219 0.82988281 8.34257812 0.91367188 9 1 C9 1.66 9 2.32 9 3 C6.69 3 4.38 3 2 3 C1.67 3.66 1.34 4.32 1 5 C0.34 3.68 -0.32 2.36 -1 1 C-0.67 0.67 -0.34 0.34 0 0 Z " fill="#5B1619" transform="translate(203,15)"/>
<path d="M0 0 C1.65 0 3.3 0 5 0 C4.34 1.32 3.68 2.64 3 4 C1.35 4 -0.3 4 -2 4 C-1.34 2.68 -0.68 1.36 0 0 Z " fill="#521313" transform="translate(59,74)"/>
<path d="M0 0 C0.66 0.33 1.32 0.66 2 1 C0.515 3.475 0.515 3.475 -1 6 C-1.99 5.67 -2.98 5.34 -4 5 C-3.6875 3.0625 -3.6875 3.0625 -3 1 C-2.01 0.67 -1.02 0.34 0 0 Z " fill="#5B1618" transform="translate(127,59)"/>
<path d="M0 0 C0 1.65 0 3.3 0 5 C-2.64 5.33 -5.28 5.66 -8 6 C-8 5.34 -8 4.68 -8 4 C-6.02 4 -4.04 4 -2 4 C-2 3.34 -2 2.68 -2 2 C-2.66 1.67 -3.32 1.34 -4 1 C-2 0 -2 0 0 0 Z " fill="#701A1C" transform="translate(340,14)"/>
<path d="M0 0 C0.99 0 1.98 0 3 0 C3.33 0.99 3.66 1.98 4 3 C3.01 3.99 2.02 4.98 1 6 C0.34 5.67 -0.32 5.34 -1 5 C-0.67 3.35 -0.34 1.7 0 0 Z " fill="#71171A" transform="translate(100,18)"/>
<path d="M0 0 C2.31 0 4.62 0 7 0 C6.67 1.32 6.34 2.64 6 4 C4.68 3.67 3.36 3.34 2 3 C2 2.34 2 1.68 2 1 C1.34 0.67 0.68 0.34 0 0 Z " fill="#561516" transform="translate(13,0)"/>
<path d="M0 0 C2.31 0 4.62 0 7 0 C6.01 0.495 6.01 0.495 5 1 C5 1.66 5 2.32 5 3 C3.35 3.33 1.7 3.66 0 4 C0 2.68 0 1.36 0 0 Z " fill="#5D2323" transform="translate(160,42)"/>
<path d="M0 0 C0.33 0.66 0.66 1.32 1 2 C3.02463255 2.65213292 3.02463255 2.65213292 5 3 C3.02 3.99 1.04 4.98 -1 6 C-1 2 -1 2 0 0 Z " fill="#CA1B22" transform="translate(326,18)"/>
<path d="M0 0 C0.99 0.33 1.98 0.66 3 1 C2.34 2.65 1.68 4.3 1 6 C0.34 5.01 -0.32 4.02 -1 3 C-0.67 2.01 -0.34 1.02 0 0 Z " fill="#5E1519" transform="translate(323,15)"/>
<path d="M0 0 C0.99 0.33 1.98 0.66 3 1 C3 1.99 3 2.98 3 4 C1.68 4 0.36 4 -1 4 C-0.67 2.68 -0.34 1.36 0 0 Z " fill="#5C1517" transform="translate(328,59)"/>
<path d="M0 0 C0.99 0.33 1.98 0.66 3 1 C3 1.66 3 2.32 3 3 C2.34 3 1.68 3 1 3 C0.67 3.66 0.34 4.32 0 5 C-0.66 3.68 -1.32 2.36 -2 1 C-1.34 0.67 -0.68 0.34 0 0 Z " fill="#5B1618" transform="translate(28,48)"/>
<path d="M0 0 C1.32 0 2.64 0 4 0 C4 0.99 4 1.98 4 3 C2.68 3 1.36 3 0 3 C0 2.01 0 1.02 0 0 Z " fill="#6D1517" transform="translate(107,58)"/>
<path d="M0 0 C1.32 0 2.64 0 4 0 C3.67 1.32 3.34 2.64 3 4 C2.01 3.34 1.02 2.68 0 2 C0 1.34 0 0.68 0 0 Z " fill="#5C1518" transform="translate(60,0)"/>
<path d="M0 0 C1.32 0 2.64 0 4 0 C3.67 1.32 3.34 2.64 3 4 C1.97895449 3.02149805 0.9793879 2.02019573 0 1 C0 0.67 0 0.34 0 0 Z " fill="#5C1618" transform="translate(152,59)"/>
<path d="M0 0 C0.66 0.33 1.32 0.66 2 1 C1.67 1.99 1.34 2.98 1 4 C0.01 3.67 -0.98 3.34 -2 3 C-1.34 2.01 -0.68 1.02 0 0 Z " fill="#5C1616" transform="translate(302,59)"/>
<path d="M0 0 C0.33 0.99 0.66 1.98 1 3 C0.01 3.33 -0.98 3.66 -2 4 C-2 3.01 -2 2.02 -2 1 C-1.34 0.67 -0.68 0.34 0 0 Z " fill="#5B1517" transform="translate(135,53)"/>
<path d="M0 0 C0.33 0 0.66 0 1 0 C1 1.65 1 3.3 1 5 C0.34 4.67 -0.32 4.34 -1 4 C-0.67 2.68 -0.34 1.36 0 0 Z " fill="#5C1517" transform="translate(314,33)"/>
<path d="M0 0 C0.66 0 1.32 0 2 0 C2 1.32 2 2.64 2 4 C1.34 4 0.68 4 0 4 C0 2.68 0 1.36 0 0 Z " fill="#5C1618" transform="translate(178,59)"/>
<path d="M0 0 C0.66 0 1.32 0 2 0 C2 0.99 2 1.98 2 3 C1.01 2.67 0.02 2.34 -1 2 C-0.67 1.34 -0.34 0.68 0 0 Z " fill="#591618" transform="translate(183,36)"/>
<path d="M0 0 C1.32 0.33 2.64 0.66 4 1 C3.34 1.66 2.68 2.32 2 3 C1.34 2.01 0.68 1.02 0 0 Z " fill="#54181A" transform="translate(32,33)"/>
<path d="M0 0 C0.33 0.99 0.66 1.98 1 3 C0.01 3 -0.98 3 -2 3 C-2 2.34 -2 1.68 -2 1 C-1.34 0.67 -0.68 0.34 0 0 Z " fill="#5B1517" transform="translate(164,30)"/>
<path d="M0 0 C0.66 0 1.32 0 2 0 C2 0.99 2 1.98 2 3 C1.34 3 0.68 3 0 3 C0 2.01 0 1.02 0 0 Z " fill="#5B1617" transform="translate(211,59)"/>
<path d="M0 0 C0.33 0.99 0.66 1.98 1 3 C0.01 3 -0.98 3 -2 3 C-1 1 -1 1 0 0 Z " fill="#731619" transform="translate(316,40)"/>
<path d="M0 0 C0.99 0.33 1.98 0.66 3 1 C2.01 1.33 1.02 1.66 0 2 C0 1.34 0 0.68 0 0 Z " fill="#5C1518" transform="translate(0,62)"/>
<path d="M0 0 C0.33 1.32 0.66 2.64 1 4 C0.34 3.01 -0.32 2.02 -1 1 C-0.67 0.67 -0.34 0.34 0 0 Z " fill="#5A1516" transform="translate(109,37)"/>
<path d="M0 0 C0.33 0.99 0.66 1.98 1 3 C0.34 2.67 -0.32 2.34 -1 2 C-0.67 1.34 -0.34 0.68 0 0 Z " fill="#5C1518" transform="translate(261,55)"/>
<path d="M0 0 C0.66 0.33 1.32 0.66 2 1 C1.01 1 0.02 1 -1 1 C-0.67 0.67 -0.34 0.34 0 0 Z " fill="#691619" transform="translate(98,52)"/>
<path d="M0 0 C0.66 0 1.32 0 2 0 C2 0.66 2 1.32 2 2 C1.34 2 0.68 2 0 2 C0 1.34 0 0.68 0 0 Z " fill="#5C1519" transform="translate(62,33)"/>
<path d="M0 0 C0.66 0 1.32 0 2 0 C2 0.66 2 1.32 2 2 C1.34 2 0.68 2 0 2 C0 1.34 0 0.68 0 0 Z " fill="#5C1618" transform="translate(183,18)"/>
<path d="M0 0 C1.485 0.99 1.485 0.99 3 2 C2.01 2 1.02 2 0 2 C0 1.34 0 0.68 0 0 Z " fill="#5C1618" transform="translate(235,15)"/>
<path d="M0 0 C0.66 0 1.32 0 2 0 C2 0.66 2 1.32 2 2 C1.34 2 0.68 2 0 2 C0 1.34 0 0.68 0 0 Z " fill="#5C1618" transform="translate(177,15)"/>
<path d="M0 0 C3 1 3 1 3 1 Z " fill="#5C1618" transform="translate(17,77)"/>
<path d="M0 0 C3 1 3 1 3 1 Z " fill="#480F11" transform="translate(63,72)"/>
<path d="M0 0 C0.99 0.495 0.99 0.495 2 1 C1.01 1.495 1.01 1.495 0 2 C0 1.34 0 0.68 0 0 Z " fill="#5C1618" transform="translate(10,71)"/>
<path d="M0 0 C3 1 3 1 3 1 Z " fill="#5C1617" transform="translate(182,60)"/>
<path d="M0 0 C0.33 0.66 0.66 1.32 1 2 C0.34 1.67 -0.32 1.34 -1 1 C-0.67 0.67 -0.34 0.34 0 0 Z " fill="#5B1517" transform="translate(260,47)"/>
<path d="M0 0 C0.66 0.66 1.32 1.32 2 2 C1.34 2 0.68 2 0 2 C0 1.34 0 0.68 0 0 Z " fill="#481D1D" transform="translate(329,45)"/>
<path d="" fill="#3C1F26" transform="translate(0,0)"/>
<path d="" fill="#2C0808" transform="translate(0,0)"/>
<path d="M0 0 C2 1 2 1 2 1 Z " fill="#A01B20" transform="translate(100,53)"/>
<path d="M0 0 C2 1 2 1 2 1 Z " fill="#5C1618" transform="translate(135,51)"/>
<path d="M0 0 C2 1 2 1 2 1 Z " fill="#4A1C1C" transform="translate(32,36)"/>
<path d="" fill="#5C1616" transform="translate(0,0)"/>
<path d="M0 0 C2 1 2 1 2 1 Z " fill="#5C1618" transform="translate(284,16)"/>
<path d="" fill="#5A1518" transform="translate(0,0)"/>
<path d="" fill="#5C1519" transform="translate(0,0)"/>
<path d="" fill="#210708" transform="translate(0,0)"/>
<path d="" fill="#5C1618" transform="translate(0,0)"/>
<path d="" fill="#5C1618" transform="translate(0,0)"/>
<path d="" fill="#5C1618" transform="translate(0,0)"/>
<path d="" fill="#5B1718" transform="translate(0,0)"/>
<path d="" fill="#4C1C1A" transform="translate(0,0)"/>
<path d="" fill="#4D1B1E" transform="translate(0,0)"/>
<path d="" fill="#4A1D1A" transform="translate(0,0)"/>
<path d="" fill="#5D1516" transform="translate(0,0)"/>
<path d="" fill="#581617" transform="translate(0,0)"/>
<path d="" fill="#491313" transform="translate(0,0)"/>
<path d="" fill="#1D0807" transform="translate(0,0)"/>
<path d="" fill="#5C1618" transform="translate(0,0)"/>
<path d="" fill="#691B1B" transform="translate(0,0)"/>
<path d="" fill="#5E161A" transform="translate(0,0)"/>
<path d="" fill="#5C1618" transform="translate(0,0)"/>
<path d="" fill="#5C1618" transform="translate(0,0)"/>
<path d="" fill="#9D1C21" transform="translate(0,0)"/>
<path d="" fill="#3B0D0F" transform="translate(0,0)"/>
<path d="" fill="#5C1618" transform="translate(0,0)"/>
<path d="" fill="#4E1C1B" transform="translate(0,0)"/>
<path d="" fill="#4C1C1C" transform="translate(0,0)"/>
<path d="" fill="#84151C" transform="translate(0,0)"/>
<path d="" fill="#3A2124" transform="translate(0,0)"/>
<path d="" fill="#29090C" transform="translate(0,0)"/>
<path d="" fill="#3E2221" transform="translate(0,0)"/>
<path d="" fill="#5C1519" transform="translate(0,0)"/>
<path d="" fill="#3C2422" transform="translate(0,0)"/>
<path d="" fill="#730E16" transform="translate(0,0)"/>
<path d="" fill="#5C1618" transform="translate(0,0)"/>
<path d="" fill="#5B1718" transform="translate(0,0)"/>
<path d="" fill="#471F1D" transform="translate(0,0)"/>
<path d="" fill="#760C10" transform="translate(0,0)"/>
<path d="" fill="#671718" transform="translate(0,0)"/>
<path d="" fill="#7B0C12" transform="translate(0,0)"/>
<path d="" fill="#5C1618" transform="translate(0,0)"/>
<path d="" fill="#5B1517" transform="translate(0,0)"/>
<path d="" fill="#581316" transform="translate(0,0)"/>
<path d="" fill="#531516" transform="translate(0,0)"/>
<path d="" fill="#4E1315" transform="translate(0,0)"/>
<path d="" fill="#5B1718" transform="translate(0,0)"/>
</svg>
